<svg width="31" height="35" viewBox="0 0 31 35" fill="none" xmlns="http://www.w3.org/2000/svg">
<g filter="url(#filter0_d_16_244)">
<path d="M12.125 4.3125C12.125 5.98828 11.1094 7.41016 9.6875 8.07031V12.5391C10.6016 11.9805 11.7188 11.625 12.9375 11.625H17.8125C19.5898 11.625 21.0625 10.2031 21.0625 8.375V8.07031C19.5898 7.41016 18.625 5.98828 18.625 4.3125C18.625 2.07812 20.4023 0.25 22.6875 0.25C24.9219 0.25 26.75 2.07812 26.75 4.3125C26.75 5.98828 25.7344 7.41016 24.3125 8.07031V8.375C24.3125 11.9805 21.3672 14.875 17.8125 14.875H12.9375C11.1094 14.875 9.6875 16.3477 9.6875 18.125V18.4805C11.1094 19.0898 12.125 20.5625 12.125 22.1875C12.125 24.4727 10.2969 26.25 8.0625 26.25C5.77734 26.25 4 24.4727 4 22.1875C4 20.5625 4.96484 19.0898 6.4375 18.4805V8.07031C4.96484 7.41016 4 5.98828 4 4.3125C4 2.07812 5.77734 0.25 8.0625 0.25C10.2969 0.25 12.125 2.07812 12.125 4.3125ZM8.0625 5.53125C8.72266 5.53125 9.28125 5.02344 9.28125 4.3125C9.28125 3.65234 8.72266 3.09375 8.0625 3.09375C7.35156 3.09375 6.84375 3.65234 6.84375 4.3125C6.84375 5.02344 7.35156 5.53125 8.0625 5.53125ZM22.6875 3.09375C21.9766 3.09375 21.4688 3.65234 21.4688 4.3125C21.4688 5.02344 21.9766 5.53125 22.6875 5.53125C23.3477 5.53125 23.9062 5.02344 23.9062 4.3125C23.9062 3.65234 23.3477 3.09375 22.6875 3.09375ZM8.0625 23.4062C8.72266 23.4062 9.28125 22.8984 9.28125 22.1875C9.28125 21.5273 8.72266 20.9688 8.0625 20.9688C7.35156 20.9688 6.84375 21.5273 6.84375 22.1875C6.84375 22.8984 7.35156 23.4062 8.0625 23.4062Z" fill="black"/>
</g>
<defs>
<filter id="filter0_d_16_244" x="0" y="0.25" width="30.75" height="34" filterUnits="userSpaceOnUse" color-interpolation-filters="sRGB">
<feFlood flood-opacity="0" result="BackgroundImageFix"/>
<feColorMatrix in="SourceAlpha" type="matrix" values="0 0 0 0 0 0 0 0 0 0 0 0 0 0 0 0 0 0 127 0" result="hardAlpha"/>
<feOffset dy="4"/>
<feGaussianBlur stdDeviation="2"/>
<feComposite in2="hardAlpha" operator="out"/>
<feColorMatrix type="matrix" values="0 0 0 0 0 0 0 0 0 0 0 0 0 0 0 0 0 0 0.25 0"/>
<feBlend mode="normal" in2="BackgroundImageFix" result="effect1_dropShadow_16_244"/>
<feBlend mode="normal" in="SourceGraphic" in2="effect1_dropShadow_16_244" result="shape"/>
</filter>
</defs>
</svg>
