<svg width="38" height="32" viewBox="0 0 38 32" fill="none" xmlns="http://www.w3.org/2000/svg">
<g filter="url(#filter0_d_16_16)">
<path d="M4 4.125C4 2.34766 5.42188 0.875 7.25 0.875H30C31.7773 0.875 33.25 2.34766 33.25 4.125V20.375C33.25 22.2031 31.7773 23.625 30 23.625H7.25C5.42188 23.625 4 22.2031 4 20.375V4.125ZM12.125 12.25C12.125 11.3867 11.3633 10.625 10.5 10.625C9.58594 10.625 8.875 11.3867 8.875 12.25C8.875 13.1641 9.58594 13.875 10.5 13.875C11.3633 13.875 12.125 13.1641 12.125 12.25ZM12.125 7.375C12.125 6.51172 11.3633 5.75 10.5 5.75C9.58594 5.75 8.875 6.51172 8.875 7.375C8.875 8.28906 9.58594 9 10.5 9C11.3633 9 12.125 8.28906 12.125 7.375ZM12.125 17.125C12.125 16.2617 11.3633 15.5 10.5 15.5C9.58594 15.5 8.875 16.2617 8.875 17.125C8.875 18.0391 9.58594 18.75 10.5 18.75C11.3633 18.75 12.125 18.0391 12.125 17.125ZM15.375 6.15625C14.6641 6.15625 14.1562 6.71484 14.1562 7.375C14.1562 8.08594 14.6641 8.59375 15.375 8.59375H26.75C27.4102 8.59375 27.9688 8.08594 27.9688 7.375C27.9688 6.71484 27.4102 6.15625 26.75 6.15625H15.375ZM15.375 11.0312C14.6641 11.0312 14.1562 11.5898 14.1562 12.25C14.1562 12.9609 14.6641 13.4688 15.375 13.4688H26.75C27.4102 13.4688 27.9688 12.9609 27.9688 12.25C27.9688 11.5898 27.4102 11.0312 26.75 11.0312H15.375ZM15.375 15.9062C14.6641 15.9062 14.1562 16.4648 14.1562 17.125C14.1562 17.8359 14.6641 18.3438 15.375 18.3438H26.75C27.4102 18.3438 27.9688 17.8359 27.9688 17.125C27.9688 16.4648 27.4102 15.9062 26.75 15.9062H15.375Z" fill="black"/>
</g>
<defs>
<filter id="filter0_d_16_16" x="0" y="0.875" width="37.25" height="30.75" filterUnits="userSpaceOnUse" color-interpolation-filters="sRGB">
<feFlood flood-opacity="0" result="BackgroundImageFix"/>
<feColorMatrix in="SourceAlpha" type="matrix" values="0 0 0 0 0 0 0 0 0 0 0 0 0 0 0 0 0 0 127 0" result="hardAlpha"/>
<feOffset dy="4"/>
<feGaussianBlur stdDeviation="2"/>
<feComposite in2="hardAlpha" operator="out"/>
<feColorMatrix type="matrix" values="0 0 0 0 0 0 0 0 0 0 0 0 0 0 0 0 0 0 0.25 0"/>
<feBlend mode="normal" in2="BackgroundImageFix" result="effect1_dropShadow_16_16"/>
<feBlend mode="normal" in="SourceGraphic" in2="effect1_dropShadow_16_16" result="shape"/>
</filter>
</defs>
</svg>
