<svg width="29" height="32" viewBox="0 0 29 32" fill="none" xmlns="http://www.w3.org/2000/svg">
<g filter="url(#filter0_d_16_410)">
<path d="M19 0V6H25L19 0ZM17.5 6V0H9.25C7.98438 0 7 1.03125 7 2.25V10.5H4.75C4.32812 10.5 4 10.875 4 11.25V12.75C4 13.1719 4.32812 13.5 4.75 13.5H10.75C11.0312 13.5 11.2656 13.6875 11.4062 13.9219L12.25 15.6094L14.5469 10.9219C14.8281 10.4531 15.625 10.4531 15.9062 10.9219L17.1719 13.5H20.5C20.875 13.5 21.25 13.875 21.25 14.25C21.25 14.6719 20.875 15 20.5 15H16.75C16.4219 15 16.1875 14.8594 16.0469 14.625L15.25 12.9375L12.9062 17.625C12.7656 17.8594 12.5312 18 12.25 18C11.9219 18 11.6875 17.8594 11.5469 17.625L10.2812 15H7V21.75C7 23.0156 7.98438 24 9.25 24H22.75C23.9688 24 25 23.0156 25 21.75V7.5H19C18.1562 7.5 17.5 6.84375 17.5 6Z" fill="black"/>
</g>
<defs>
<filter id="filter0_d_16_410" x="0" y="0" width="29" height="32" filterUnits="userSpaceOnUse" color-interpolation-filters="sRGB">
<feFlood flood-opacity="0" result="BackgroundImageFix"/>
<feColorMatrix in="SourceAlpha" type="matrix" values="0 0 0 0 0 0 0 0 0 0 0 0 0 0 0 0 0 0 127 0" result="hardAlpha"/>
<feOffset dy="4"/>
<feGaussianBlur stdDeviation="2"/>
<feComposite in2="hardAlpha" operator="out"/>
<feColorMatrix type="matrix" values="0 0 0 0 0 0 0 0 0 0 0 0 0 0 0 0 0 0 0.25 0"/>
<feBlend mode="normal" in2="BackgroundImageFix" result="effect1_dropShadow_16_410"/>
<feBlend mode="normal" in="SourceGraphic" in2="effect1_dropShadow_16_410" result="shape"/>
</filter>
</defs>
</svg>
