<svg width="38" height="35" viewBox="0 0 38 35" fill="none" xmlns="http://www.w3.org/2000/svg">
<g filter="url(#filter0_d_16_18)">
<path d="M33.1992 13.25C33.1992 14.1641 32.4375 14.875 31.5742 14.875H29.9492L30 23C30 23.1523 30 23.3047 30 23.4062V24.2188C30 25.3867 29.0859 26.25 27.9688 26.25H27.1562C27.0547 26.25 27.0039 26.25 26.9531 26.25C26.9023 26.25 26.8008 26.25 26.75 26.25H23.9062C22.7383 26.25 21.875 25.3867 21.875 24.2188V19.75C21.875 18.8867 21.1133 18.125 20.25 18.125H17C16.0859 18.125 15.375 18.8867 15.375 19.75V24.2188C15.375 25.3867 14.4609 26.25 13.3438 26.25H10.5C10.3984 26.25 10.3477 26.25 10.2461 26.25C10.1953 26.25 10.1445 26.25 10.0938 26.25H9.28125C8.11328 26.25 7.25 25.3867 7.25 24.2188V18.5312C7.25 18.5312 7.25 18.4805 7.25 18.4297V14.875H5.625C4.71094 14.875 4 14.1641 4 13.25C4 12.793 4.15234 12.3867 4.50781 12.0312L17.5078 0.707031C17.8633 0.351562 18.2695 0.25 18.625 0.25C18.9805 0.25 19.3867 0.402344 19.6914 0.65625L32.6406 12.0312C33.0469 12.3867 33.25 12.793 33.1992 13.25Z" fill="black"/>
</g>
<defs>
<filter id="filter0_d_16_18" x="0" y="0.25" width="37.25" height="34" filterUnits="userSpaceOnUse" color-interpolation-filters="sRGB">
<feFlood flood-opacity="0" result="BackgroundImageFix"/>
<feColorMatrix in="SourceAlpha" type="matrix" values="0 0 0 0 0 0 0 0 0 0 0 0 0 0 0 0 0 0 127 0" result="hardAlpha"/>
<feOffset dy="4"/>
<feGaussianBlur stdDeviation="2"/>
<feComposite in2="hardAlpha" operator="out"/>
<feColorMatrix type="matrix" values="0 0 0 0 0 0 0 0 0 0 0 0 0 0 0 0 0 0 0.25 0"/>
<feBlend mode="normal" in2="BackgroundImageFix" result="effect1_dropShadow_16_18"/>
<feBlend mode="normal" in="SourceGraphic" in2="effect1_dropShadow_16_18" result="shape"/>
</filter>
</defs>
</svg>
