<svg width="31" height="35" viewBox="0 0 31 35" fill="none" xmlns="http://www.w3.org/2000/svg">
<g filter="url(#filter0_d_16_19)">
<path d="M15.375 13.25C18.9297 13.25 21.875 10.3555 21.875 6.75C21.875 3.19531 18.9297 0.25 15.375 0.25C11.7695 0.25 8.875 3.19531 8.875 6.75C8.875 10.3555 11.7695 13.25 15.375 13.25ZM17.9141 15.6875H12.7852C7.91016 15.6875 4 19.6484 4 24.5234C4 25.4883 4.76172 26.25 5.72656 26.25H24.9727C25.9375 26.25 26.75 25.4883 26.75 24.5234C26.75 19.6484 22.7891 15.6875 17.9141 15.6875Z" fill="black"/>
</g>
<defs>
<filter id="filter0_d_16_19" x="0" y="0.25" width="30.75" height="34" filterUnits="userSpaceOnUse" color-interpolation-filters="sRGB">
<feFlood flood-opacity="0" result="BackgroundImageFix"/>
<feColorMatrix in="SourceAlpha" type="matrix" values="0 0 0 0 0 0 0 0 0 0 0 0 0 0 0 0 0 0 127 0" result="hardAlpha"/>
<feOffset dy="4"/>
<feGaussianBlur stdDeviation="2"/>
<feComposite in2="hardAlpha" operator="out"/>
<feColorMatrix type="matrix" values="0 0 0 0 0 0 0 0 0 0 0 0 0 0 0 0 0 0 0.25 0"/>
<feBlend mode="normal" in2="BackgroundImageFix" result="effect1_dropShadow_16_19"/>
<feBlend mode="normal" in="SourceGraphic" in2="effect1_dropShadow_16_19" result="shape"/>
</filter>
</defs>
</svg>
