<svg width="156" height="104" viewBox="0 0 156 104" fill="none" xmlns="http://www.w3.org/2000/svg">
<path d="M65.4346 41.001L1.43457 46.001C2.63457 64.401 26.9346 76.6676 38.9346 80.501L65.4346 41.001Z" fill="#E19D72" stroke="#E19D73" stroke-linejoin="round"/>
<path d="M116.435 13.0044C58.6553 -17.4956 -4.87468 16.3341 1.43457 45.501L68.119 40.5048L116.435 13.0044Z" fill="#E45467" stroke="#E45467" stroke-linejoin="round"/>
<path d="M116.935 18.501C116.935 17.1676 116.435 15.201 116.435 14.001L66.4346 41.001V45.501L68.4346 43.001L72.9346 45.501V42.001L88.4346 46.001V41.001L95.9346 40.001L95.4346 35.501L99.9346 34.001L100.435 28.501L116.935 18.501Z" fill="#571A27" stroke="#561A26"/>
<path d="M39.4346 98.001V80.501C11.4346 72.901 2.43457 53.6676 1.43457 45.001L1.93457 62.001C4.33457 82.401 27.9346 94.501 39.4346 98.001Z" fill="#B36D5F" stroke="#B06C5E"/>
<path d="M97.9346 79.501L65.9346 41.001L39.4346 80.001C60.2346 88.401 87.4346 83.3343 97.9346 79.501Z" fill="#F1E78A" stroke="#F2E98C"/>
<path d="M98.4346 78.5394V97.3091C111.5 94.5 126 83.5 130.37 74.9497L131.435 57.001C126.751 68.4882 107.483 76.1463 98.4346 78.5394Z" fill="#679867" stroke="#669765"/>
<path d="M88.4346 41.001L149.435 38.501C150.435 42.1676 151.535 50.601 145.935 57.001V75.501L131.435 72.001V59.001L88.4346 46.001V41.001Z" fill="#46899F"/>
<path d="M88.4346 41.001L149.435 38.501C150.435 42.1676 151.535 50.601 145.935 57.001M88.4346 41.001L145.935 57.001M88.4346 41.001V46.001L131.435 59.001V72.001L145.935 75.501V57.001" stroke="#44869B"/>
<path d="M149.435 13.0087C148.935 10.5087 142.435 5.50868 139.935 5.00868C137.435 4.50868 100.435 28.5087 100.435 28.5087L149.435 13.0087Z" fill="#385CDF" stroke="#385CDF"/>
<path d="M149.435 13.001L100.435 29.001" stroke="#385CDF"/>
<path d="M150.435 60.501L146.435 75.001H145.935L146.435 56.501L150.935 46.501L150.435 60.501Z" fill="#3D7696" stroke="#3D7696"/>
<path d="M97.4346 79.001C115.435 73.801 127.935 64.1676 130.435 59.501L98.4346 49.501L66.4346 41.001C68.4346 46.601 88.7679 69.001 97.4346 79.001Z" fill="#8FE17B" stroke="#90E27D"/>
<path d="M147.435 19.0006C146.635 18.2006 112.768 30.0006 95.9346 36.0006L154.935 33.001C155.435 31.001 148.435 20.0006 147.435 19.0006Z" fill="#E35CE4" stroke="#E35CE4"/>
<path d="M95.9346 40.001V36.501L154.935 33.501C155.935 41.501 154.435 50.701 154.435 51.501C154.435 52.301 152.435 51.8343 151.435 51.501L149.935 37.501L95.9346 40.001Z" fill="#501F76" stroke="#501E72"/>
<path d="M99.9346 33.501L100.435 29.001L149.435 13.501V20.001L147.435 18.001L99.9346 33.501Z" fill="#1D1D99" stroke="#1D1D99"/>
<path d="M97.9346 80.001C73.5346 89.201 48.7679 84.501 39.4346 81.001L40.4346 98.501C65.5 107 90 100.5 97.9346 97.5V80.001Z" fill="#AFA371" stroke="#ADA171"/>
<path d="M148.935 38.501L87.9346 40.501L145.435 57.001C150.235 51.401 149.768 42.3343 148.935 38.501Z" fill="#68CDE5" stroke="#68CDE5"/>
<path d="M27.19 54.66C27.19 54.28 27.1033 53.98 26.93 53.76C26.7633 53.54 26.5267 53.43 26.22 53.43C25.92 53.43 25.69 53.5067 25.53 53.66C25.37 53.8133 25.29 54.0067 25.29 54.24C25.29 54.4733 25.3333 54.68 25.42 54.86C25.3067 54.96 25.1533 55.01 24.96 55.01C24.72 55.01 24.6 54.83 24.6 54.47C24.6 54.1033 24.73 53.8033 24.99 53.57C25.2567 53.33 25.6633 53.21 26.21 53.21C26.7633 53.21 27.1933 53.34 27.5 53.6C27.8133 53.86 27.97 54.17 27.97 54.53C27.97 55.03 27.7367 55.5467 27.27 56.08C27.2233 56.1333 27.1133 56.2533 26.94 56.44C26.7733 56.62 26.6767 56.7267 26.65 56.76L25.16 58.37H27.46C27.62 58.37 27.7133 58.2967 27.74 58.15L27.87 57.28H28.1V57.76C28.1 58.3467 28.1333 58.79 28.2 59.09C27.9733 59.03 27.59 59 27.05 59H24.2L26.47 56.5C26.95 55.9667 27.19 55.3533 27.19 54.66ZM30.6389 59.12C30.0256 59.12 29.5256 58.86 29.1389 58.34C28.7589 57.8133 28.5689 57.09 28.5689 56.17C28.5689 55.2433 28.7589 54.52 29.1389 54C29.5256 53.4733 30.0256 53.21 30.6389 53.21C31.2522 53.21 31.7522 53.4733 32.1389 54C32.5256 54.52 32.7189 55.2433 32.7189 56.17C32.7189 57.09 32.5256 57.8133 32.1389 58.34C31.7522 58.86 31.2522 59.12 30.6389 59.12ZM29.7089 54.17C29.4622 54.6633 29.3389 55.33 29.3389 56.17C29.3389 57.01 29.4622 57.6767 29.7089 58.17C29.9622 58.6633 30.2722 58.91 30.6389 58.91C31.0056 58.91 31.3156 58.6633 31.5689 58.17C31.8222 57.6767 31.9489 57.01 31.9489 56.17C31.9489 55.33 31.8222 54.6633 31.5689 54.17C31.3156 53.6767 31.0056 53.43 30.6389 53.43C30.2722 53.43 29.9622 53.6767 29.7089 54.17ZM34.4178 56.95C34.0178 56.95 33.6911 56.7833 33.4378 56.45C33.1911 56.1167 33.0678 55.66 33.0678 55.08C33.0678 54.4933 33.1911 54.0367 33.4378 53.71C33.6911 53.3767 34.0178 53.21 34.4178 53.21C34.8178 53.21 35.1411 53.3767 35.3878 53.71C35.6411 54.0367 35.7678 54.4933 35.7678 55.08C35.7678 55.66 35.6411 56.1167 35.3878 56.45C35.1411 56.7833 34.8178 56.95 34.4178 56.95ZM34.4078 53.4C34.2011 53.4 34.0245 53.55 33.8778 53.85C33.7378 54.15 33.6678 54.56 33.6678 55.08C33.6678 55.5933 33.7378 56 33.8778 56.3C34.0245 56.6 34.2011 56.75 34.4078 56.75C34.6211 56.75 34.8011 56.6 34.9478 56.3C35.0945 55.9933 35.1678 55.5833 35.1678 55.07C35.1678 54.5567 35.0945 54.15 34.9478 53.85C34.8011 53.55 34.6211 53.4 34.4078 53.4ZM38.6878 59.08C38.2878 59.08 37.9611 58.9133 37.7078 58.58C37.4611 58.2467 37.3378 57.79 37.3378 57.21C37.3378 56.6233 37.4611 56.1667 37.7078 55.84C37.9611 55.5067 38.2878 55.34 38.6878 55.34C39.0878 55.34 39.4111 55.5067 39.6578 55.84C39.9111 56.1667 40.0378 56.6233 40.0378 57.21C40.0378 57.79 39.9111 58.2467 39.6578 58.58C39.4111 58.9133 39.0878 59.08 38.6878 59.08ZM38.6778 55.53C38.4711 55.53 38.2945 55.68 38.1478 55.98C38.0078 56.28 37.9378 56.69 37.9378 57.21C37.9378 57.7233 38.0078 58.13 38.1478 58.43C38.2945 58.73 38.4711 58.88 38.6778 58.88C38.8911 58.88 39.0711 58.73 39.2178 58.43C39.3645 58.1233 39.4378 57.7133 39.4378 57.2C39.4378 56.6867 39.3645 56.28 39.2178 55.98C39.0711 55.68 38.8911 55.53 38.6778 55.53ZM35.4778 59.74H35.1278L37.6178 52.52H37.9778L35.4778 59.74Z" fill="black"/>
<path d="M59.73 71V70.81H60.9C60.98 70.81 61.0267 70.77 61.04 70.69V66.09C61.04 65.9233 60.94 65.84 60.74 65.84L59.63 65.9L59.61 65.66L60.52 65.53C61.0933 65.4433 61.5467 65.3367 61.88 65.21C61.8133 65.4633 61.78 65.8433 61.78 66.35V70.67C61.78 70.7633 61.83 70.81 61.93 70.81H62.87V71H59.73ZM64.0489 66.65C64.0489 66.2033 64.1956 65.8533 64.4889 65.6C64.7822 65.34 65.1656 65.21 65.6389 65.21C66.1122 65.21 66.4956 65.34 66.7889 65.6C67.0822 65.8533 67.2289 66.2033 67.2289 66.65C67.2289 66.9833 67.1422 67.2667 66.9689 67.5C66.8022 67.7267 66.5722 67.89 66.2789 67.99C66.6522 68.09 66.9456 68.2733 67.1589 68.54C67.3789 68.8 67.4889 69.1533 67.4889 69.6C67.4889 70.0467 67.3156 70.4133 66.9689 70.7C66.6289 70.98 66.1856 71.12 65.6389 71.12C65.0922 71.12 64.6456 70.98 64.2989 70.7C63.9589 70.4133 63.7889 70.0467 63.7889 69.6C63.7889 69.1533 63.8956 68.8 64.1089 68.54C64.3222 68.2733 64.6156 68.09 64.9889 67.99C64.6956 67.89 64.4656 67.7267 64.2989 67.5C64.1322 67.2667 64.0489 66.9833 64.0489 66.65ZM64.8789 68.49C64.6722 68.7367 64.5689 69.0767 64.5689 69.51C64.5689 69.9433 64.6722 70.2867 64.8789 70.54C65.0856 70.7867 65.3389 70.91 65.6389 70.91C65.9389 70.91 66.1922 70.7833 66.3989 70.53C66.6122 70.2767 66.7189 69.9367 66.7189 69.51C66.7189 69.0767 66.6122 68.7367 66.3989 68.49C66.1922 68.2367 65.9389 68.11 65.6389 68.11C65.3389 68.11 65.0856 68.2367 64.8789 68.49ZM64.9989 65.76C64.8322 65.98 64.7489 66.28 64.7489 66.66C64.7489 67.04 64.8322 67.34 64.9989 67.56C65.1722 67.78 65.3856 67.89 65.6389 67.89C65.8922 67.89 66.1022 67.78 66.2689 67.56C66.4422 67.34 66.5289 67.04 66.5289 66.66C66.5289 66.28 66.4422 65.98 66.2689 65.76C66.1022 65.54 65.8922 65.43 65.6389 65.43C65.3856 65.43 65.1722 65.54 64.9989 65.76ZM69.4178 68.95C69.0178 68.95 68.6911 68.7833 68.4378 68.45C68.1911 68.1167 68.0678 67.66 68.0678 67.08C68.0678 66.4933 68.1911 66.0367 68.4378 65.71C68.6911 65.3767 69.0178 65.21 69.4178 65.21C69.8178 65.21 70.1411 65.3767 70.3878 65.71C70.6411 66.0367 70.7678 66.4933 70.7678 67.08C70.7678 67.66 70.6411 68.1167 70.3878 68.45C70.1411 68.7833 69.8178 68.95 69.4178 68.95ZM69.4078 65.4C69.2011 65.4 69.0245 65.55 68.8778 65.85C68.7378 66.15 68.6678 66.56 68.6678 67.08C68.6678 67.5933 68.7378 68 68.8778 68.3C69.0245 68.6 69.2011 68.75 69.4078 68.75C69.6211 68.75 69.8011 68.6 69.9478 68.3C70.0945 67.9933 70.1678 67.5833 70.1678 67.07C70.1678 66.5567 70.0945 66.15 69.9478 65.85C69.8011 65.55 69.6211 65.4 69.4078 65.4ZM73.6878 71.08C73.2878 71.08 72.9611 70.9133 72.7078 70.58C72.4611 70.2467 72.3378 69.79 72.3378 69.21C72.3378 68.6233 72.4611 68.1667 72.7078 67.84C72.9611 67.5067 73.2878 67.34 73.6878 67.34C74.0878 67.34 74.4111 67.5067 74.6578 67.84C74.9111 68.1667 75.0378 68.6233 75.0378 69.21C75.0378 69.79 74.9111 70.2467 74.6578 70.58C74.4111 70.9133 74.0878 71.08 73.6878 71.08ZM73.6778 67.53C73.4711 67.53 73.2945 67.68 73.1478 67.98C73.0078 68.28 72.9378 68.69 72.9378 69.21C72.9378 69.7233 73.0078 70.13 73.1478 70.43C73.2945 70.73 73.4711 70.88 73.6778 70.88C73.8911 70.88 74.0711 70.73 74.2178 70.43C74.3645 70.1233 74.4378 69.7133 74.4378 69.2C74.4378 68.6867 74.3645 68.28 74.2178 67.98C74.0711 67.68 73.8911 67.53 73.6778 67.53ZM70.4778 71.74H70.1278L72.6178 64.52H72.9778L70.4778 71.74Z" fill="black"/>
<path d="M90.73 62V61.81H91.9C91.98 61.81 92.0267 61.77 92.04 61.69V57.09C92.04 56.9233 91.94 56.84 91.74 56.84L90.63 56.9L90.61 56.66L91.52 56.53C92.0933 56.4433 92.5467 56.3367 92.88 56.21C92.8133 56.4633 92.78 56.8433 92.78 57.35V61.67C92.78 61.7633 92.83 61.81 92.93 61.81H93.87V62H90.73ZM97.4989 56.21H97.8289V60.35H98.6689V60.66H97.8289V61.69C97.8289 61.77 97.8789 61.81 97.9789 61.81H98.6689V62H96.2589V61.81H96.9489C97.0422 61.81 97.0889 61.7633 97.0889 61.67V60.66H94.3289L97.4989 56.21ZM94.8989 60.35H97.0889V57.28L94.8989 60.35ZM100.418 59.95C100.018 59.95 99.6911 59.7833 99.4378 59.45C99.1911 59.1167 99.0678 58.66 99.0678 58.08C99.0678 57.4933 99.1911 57.0367 99.4378 56.71C99.6911 56.3767 100.018 56.21 100.418 56.21C100.818 56.21 101.141 56.3767 101.388 56.71C101.641 57.0367 101.768 57.4933 101.768 58.08C101.768 58.66 101.641 59.1167 101.388 59.45C101.141 59.7833 100.818 59.95 100.418 59.95ZM100.408 56.4C100.201 56.4 100.024 56.55 99.8778 56.85C99.7378 57.15 99.6678 57.56 99.6678 58.08C99.6678 58.5933 99.7378 59 99.8778 59.3C100.024 59.6 100.201 59.75 100.408 59.75C100.621 59.75 100.801 59.6 100.948 59.3C101.094 58.9933 101.168 58.5833 101.168 58.07C101.168 57.5567 101.094 57.15 100.948 56.85C100.801 56.55 100.621 56.4 100.408 56.4ZM104.688 62.08C104.288 62.08 103.961 61.9133 103.708 61.58C103.461 61.2467 103.338 60.79 103.338 60.21C103.338 59.6233 103.461 59.1667 103.708 58.84C103.961 58.5067 104.288 58.34 104.688 58.34C105.088 58.34 105.411 58.5067 105.658 58.84C105.911 59.1667 106.038 59.6233 106.038 60.21C106.038 60.79 105.911 61.2467 105.658 61.58C105.411 61.9133 105.088 62.08 104.688 62.08ZM104.678 58.53C104.471 58.53 104.294 58.68 104.148 58.98C104.008 59.28 103.938 59.69 103.938 60.21C103.938 60.7233 104.008 61.13 104.148 61.43C104.294 61.73 104.471 61.88 104.678 61.88C104.891 61.88 105.071 61.73 105.218 61.43C105.364 61.1233 105.438 60.7133 105.438 60.2C105.438 59.6867 105.364 59.28 105.218 58.98C105.071 58.68 104.891 58.53 104.678 58.53ZM101.478 62.74H101.128L103.618 55.52H103.978L101.478 62.74Z" fill="black"/>
<path d="M120.2 48.12L120.12 47.89C120.487 47.77 120.88 47.52 121.3 47.14C121.52 46.9333 121.72 46.6667 121.9 46.34C122.087 46.0133 122.223 45.6533 122.31 45.26C122.063 45.64 121.717 45.83 121.27 45.83C120.823 45.83 120.423 45.6633 120.07 45.33C119.723 44.99 119.55 44.5467 119.55 44C119.55 43.4467 119.71 43.01 120.03 42.69C120.35 42.37 120.793 42.21 121.36 42.21C121.927 42.21 122.373 42.4 122.7 42.78C123.027 43.1533 123.19 43.61 123.19 44.15C123.19 44.69 123.087 45.2133 122.88 45.72C122.673 46.22 122.337 46.6933 121.87 47.14C121.41 47.5867 120.853 47.9133 120.2 48.12ZM121.39 45.54C121.683 45.54 121.923 45.4133 122.11 45.16C122.303 44.9067 122.4 44.54 122.4 44.06C122.4 43.58 122.297 43.19 122.09 42.89C121.883 42.5833 121.633 42.43 121.34 42.43C121.047 42.43 120.803 42.5667 120.61 42.84C120.417 43.1067 120.32 43.48 120.32 43.96C120.32 44.44 120.427 44.8233 120.64 45.11C120.853 45.3967 121.103 45.54 121.39 45.54ZM125.089 45.95C124.689 45.95 124.362 45.7833 124.109 45.45C123.862 45.1167 123.739 44.66 123.739 44.08C123.739 43.4933 123.862 43.0367 124.109 42.71C124.362 42.3767 124.689 42.21 125.089 42.21C125.489 42.21 125.812 42.3767 126.059 42.71C126.312 43.0367 126.439 43.4933 126.439 44.08C126.439 44.66 126.312 45.1167 126.059 45.45C125.812 45.7833 125.489 45.95 125.089 45.95ZM125.079 42.4C124.872 42.4 124.696 42.55 124.549 42.85C124.409 43.15 124.339 43.56 124.339 44.08C124.339 44.5933 124.409 45 124.549 45.3C124.696 45.6 124.872 45.75 125.079 45.75C125.292 45.75 125.472 45.6 125.619 45.3C125.766 44.9933 125.839 44.5833 125.839 44.07C125.839 43.5567 125.766 43.15 125.619 42.85C125.472 42.55 125.292 42.4 125.079 42.4ZM129.359 48.08C128.959 48.08 128.632 47.9133 128.379 47.58C128.132 47.2467 128.009 46.79 128.009 46.21C128.009 45.6233 128.132 45.1667 128.379 44.84C128.632 44.5067 128.959 44.34 129.359 44.34C129.759 44.34 130.082 44.5067 130.329 44.84C130.582 45.1667 130.709 45.6233 130.709 46.21C130.709 46.79 130.582 47.2467 130.329 47.58C130.082 47.9133 129.759 48.08 129.359 48.08ZM129.349 44.53C129.142 44.53 128.966 44.68 128.819 44.98C128.679 45.28 128.609 45.69 128.609 46.21C128.609 46.7233 128.679 47.13 128.819 47.43C128.966 47.73 129.142 47.88 129.349 47.88C129.562 47.88 129.742 47.73 129.889 47.43C130.036 47.1233 130.109 46.7133 130.109 46.2C130.109 45.6867 130.036 45.28 129.889 44.98C129.742 44.68 129.562 44.53 129.349 44.53ZM126.149 48.74H125.799L128.289 41.52H128.649L126.149 48.74Z" fill="black"/>
<path d="M135.19 26.66C135.19 26.28 135.103 25.98 134.93 25.76C134.763 25.54 134.527 25.43 134.22 25.43C133.92 25.43 133.69 25.5067 133.53 25.66C133.37 25.8133 133.29 26.0067 133.29 26.24C133.29 26.4733 133.333 26.68 133.42 26.86C133.307 26.96 133.153 27.01 132.96 27.01C132.72 27.01 132.6 26.83 132.6 26.47C132.6 26.1033 132.73 25.8033 132.99 25.57C133.257 25.33 133.663 25.21 134.21 25.21C134.763 25.21 135.193 25.34 135.5 25.6C135.813 25.86 135.97 26.17 135.97 26.53C135.97 27.03 135.737 27.5467 135.27 28.08C135.223 28.1333 135.113 28.2533 134.94 28.44C134.773 28.62 134.677 28.7267 134.65 28.76L133.16 30.37H135.46C135.62 30.37 135.713 30.2967 135.74 30.15L135.87 29.28H136.1V29.76C136.1 30.3467 136.133 30.79 136.2 31.09C135.973 31.03 135.59 31 135.05 31H132.2L134.47 28.5C134.95 27.9667 135.19 27.3533 135.19 26.66ZM138.089 28.95C137.689 28.95 137.362 28.7833 137.109 28.45C136.862 28.1167 136.739 27.66 136.739 27.08C136.739 26.4933 136.862 26.0367 137.109 25.71C137.362 25.3767 137.689 25.21 138.089 25.21C138.489 25.21 138.812 25.3767 139.059 25.71C139.312 26.0367 139.439 26.4933 139.439 27.08C139.439 27.66 139.312 28.1167 139.059 28.45C138.812 28.7833 138.489 28.95 138.089 28.95ZM138.079 25.4C137.872 25.4 137.696 25.55 137.549 25.85C137.409 26.15 137.339 26.56 137.339 27.08C137.339 27.5933 137.409 28 137.549 28.3C137.696 28.6 137.872 28.75 138.079 28.75C138.292 28.75 138.472 28.6 138.619 28.3C138.766 27.9933 138.839 27.5833 138.839 27.07C138.839 26.5567 138.766 26.15 138.619 25.85C138.472 25.55 138.292 25.4 138.079 25.4ZM142.359 31.08C141.959 31.08 141.632 30.9133 141.379 30.58C141.132 30.2467 141.009 29.79 141.009 29.21C141.009 28.6233 141.132 28.1667 141.379 27.84C141.632 27.5067 141.959 27.34 142.359 27.34C142.759 27.34 143.082 27.5067 143.329 27.84C143.582 28.1667 143.709 28.6233 143.709 29.21C143.709 29.79 143.582 30.2467 143.329 30.58C143.082 30.9133 142.759 31.08 142.359 31.08ZM142.349 27.53C142.142 27.53 141.966 27.68 141.819 27.98C141.679 28.28 141.609 28.69 141.609 29.21C141.609 29.7233 141.679 30.13 141.819 30.43C141.966 30.73 142.142 30.88 142.349 30.88C142.562 30.88 142.742 30.73 142.889 30.43C143.036 30.1233 143.109 29.7133 143.109 29.2C143.109 28.6867 143.036 28.28 142.889 27.98C142.742 27.68 142.562 27.53 142.349 27.53ZM139.149 31.74H138.799L141.289 24.52H141.649L139.149 31.74Z" fill="black"/>
<path d="M133.19 10.66C133.19 10.28 133.103 9.98 132.93 9.76C132.763 9.54 132.527 9.43 132.22 9.43C131.92 9.43 131.69 9.50667 131.53 9.66C131.37 9.81333 131.29 10.0067 131.29 10.24C131.29 10.4733 131.333 10.68 131.42 10.86C131.307 10.96 131.153 11.01 130.96 11.01C130.72 11.01 130.6 10.83 130.6 10.47C130.6 10.1033 130.73 9.80333 130.99 9.57C131.257 9.33 131.663 9.21 132.21 9.21C132.763 9.21 133.193 9.34 133.5 9.6C133.813 9.86 133.97 10.17 133.97 10.53C133.97 11.03 133.737 11.5467 133.27 12.08C133.223 12.1333 133.113 12.2533 132.94 12.44C132.773 12.62 132.677 12.7267 132.65 12.76L131.16 14.37H133.46C133.62 14.37 133.713 14.2967 133.74 14.15L133.87 13.28H134.1V13.76C134.1 14.3467 134.133 14.79 134.2 15.09C133.973 15.03 133.59 15 133.05 15H130.2L132.47 12.5C132.95 11.9667 133.19 11.3533 133.19 10.66ZM136.089 12.95C135.689 12.95 135.362 12.7833 135.109 12.45C134.862 12.1167 134.739 11.66 134.739 11.08C134.739 10.4933 134.862 10.0367 135.109 9.71C135.362 9.37667 135.689 9.21 136.089 9.21C136.489 9.21 136.812 9.37667 137.059 9.71C137.312 10.0367 137.439 10.4933 137.439 11.08C137.439 11.66 137.312 12.1167 137.059 12.45C136.812 12.7833 136.489 12.95 136.089 12.95ZM136.079 9.4C135.872 9.4 135.696 9.55 135.549 9.85C135.409 10.15 135.339 10.56 135.339 11.08C135.339 11.5933 135.409 12 135.549 12.3C135.696 12.6 135.872 12.75 136.079 12.75C136.292 12.75 136.472 12.6 136.619 12.3C136.766 11.9933 136.839 11.5833 136.839 11.07C136.839 10.5567 136.766 10.15 136.619 9.85C136.472 9.55 136.292 9.4 136.079 9.4ZM140.359 15.08C139.959 15.08 139.632 14.9133 139.379 14.58C139.132 14.2467 139.009 13.79 139.009 13.21C139.009 12.6233 139.132 12.1667 139.379 11.84C139.632 11.5067 139.959 11.34 140.359 11.34C140.759 11.34 141.082 11.5067 141.329 11.84C141.582 12.1667 141.709 12.6233 141.709 13.21C141.709 13.79 141.582 14.2467 141.329 14.58C141.082 14.9133 140.759 15.08 140.359 15.08ZM140.349 11.53C140.142 11.53 139.966 11.68 139.819 11.98C139.679 12.28 139.609 12.69 139.609 13.21C139.609 13.7233 139.679 14.13 139.819 14.43C139.966 14.73 140.142 14.88 140.349 14.88C140.562 14.88 140.742 14.73 140.889 14.43C141.036 14.1233 141.109 13.7133 141.109 13.2C141.109 12.6867 141.036 12.28 140.889 11.98C140.742 11.68 140.562 11.53 140.349 11.53ZM137.149 15.74H136.799L139.289 8.52H139.649L137.149 15.74Z" fill="black"/>
</svg>
